<svg width="260" height="227" viewBox="0 0 260 227" fill="none" xmlns="http://www.w3.org/2000/svg">
<g id="undraw_missed_chances_k3cq-2">
<ellipse id="Oval" opacity="0.1" cx="128.817" cy="219.8" rx="98.9137" ry="7.15041" fill="#7C4DFF"/>
<path id="Path" opacity="0.1" d="M256.897 186.975C255.82 188.633 254.498 190.119 252.976 191.382C252.557 191.728 252.123 192.064 251.681 192.378C246.031 196.436 238.465 198.219 231.116 199.374C216.846 201.617 202.279 202.053 187.773 202.481C175.56 202.845 163.34 203.209 151.123 203.45C133.66 203.8 116.195 203.905 98.759 203.45C89.228 203.2 79.7045 202.758 70.1886 202.126C52.5322 200.918 34.421 198.785 19.0507 191.334C16.2381 189.99 13.5503 188.4 11.0187 186.581C6.84458 183.54 3.40749 179.861 1.56952 175.503C-1.38761 168.498 0.175117 160.627 3.55307 153.758C5.60031 149.606 8.25946 145.716 11.0187 141.862C12.6519 139.574 14.3216 137.299 15.9093 134.991C16.0754 134.763 16.2369 134.52 16.3961 134.284C16.7032 133.829 17.008 133.374 17.306 132.919C18.5525 131.002 19.7331 129.023 20.8159 127.006C21.8952 124.993 22.8708 122.927 23.7389 120.815C24.5351 118.885 25.2186 116.911 25.7861 114.902C26.1637 113.549 26.4822 112.191 26.7279 110.833C28.0722 103.439 27.3625 96.0502 23.3818 89.3615C23.3431 89.2955 23.3022 89.225 23.2612 89.159L23.2112 89.0794C22.0875 87.235 20.7317 85.4974 19.3987 83.753C17.8064 81.6607 16.2392 79.5547 15.1359 77.2508C12.2334 71.1625 12.8612 64.3168 13.9167 57.8146C15.3247 49.1722 17.1182 43.4194 26.0591 34.4597C35 25.5001 46.4519 22.1356 56.9133 24.1415C73.1685 27.2505 89.1715 38.309 103.336 46.6546C117.5 55.0001 134.361 62.9192 151.025 63.4946C165.74 64.0063 182.903 60.1855 192.668 50.2468C202.154 40.5969 219.985 34.8623 232.842 40.6982C245.107 46.2588 253.039 58.0306 252.443 69.7842C251.574 86.9029 235.074 100.032 225.229 115.011C224.787 115.68 224.357 116.364 223.948 117.058C220.081 123.592 217.699 131.095 220.552 137.897C224.378 147.011 235.738 151.457 245.319 157.181C249.946 159.944 254.168 163.008 256.897 167.047C257 167.193 257.093 167.336 257.186 167.479C261.037 173.438 260.746 181.048 256.897 186.975Z" fill="#7C4DFF"/>
<path id="Path_2" d="M20.8136 127.001C21.8936 124.99 22.87 122.926 23.7389 120.815C24.5351 118.885 25.2187 116.911 25.7862 114.902C26.1638 113.549 26.4822 112.191 26.7279 110.833C28.0723 103.439 27.3625 96.0501 23.3818 89.3614C23.3431 89.2954 23.3022 89.2249 23.2612 89.159L19.3942 83.7529H48.0898V102.803H56.0717V159.944H66.3716V141.409H78.7302V159.944H89.0233V128.279H89.5373V111.804H99.3186V128.279H121.977V152.992H134.595V145.259H142.329V152.992H150.13L150.222 47.1314H155.037V39.9174L154.945 28.9032H159.502L159.37 24.0466H164.667V7.69492H166.593V0H167.499L167.556 7.69492H169.481L169.512 24.0466H174.296V28.8559L178.888 28.9032L179.111 39.9174V47.1314H183.926L183.703 102.793H191.944V83.7438L196.444 83.6822L208.498 83.7438H215.452V102.793H223.948V117.056C220.081 123.59 217.699 131.093 220.552 137.895C224.378 147.008 235.738 151.454 245.319 157.179C249.946 159.944 254.168 163.008 256.897 167.047V186.981C255.819 188.637 254.497 190.121 252.976 191.382C252.557 191.728 252.123 192.064 251.681 192.378C246.031 196.436 238.465 198.219 231.116 199.374C216.846 201.616 202.279 202.053 187.773 202.481C175.56 202.845 163.34 203.208 151.123 203.45H98.7545C89.2234 203.199 79.7 202.758 70.1841 202.126C52.5277 200.918 34.4164 198.785 19.0462 191.334C16.2336 189.99 13.5458 188.4 11.0142 186.581V141.861C12.6474 139.573 14.317 137.299 15.9048 134.991C15.9048 134.991 19.7309 129.018 20.8136 127.001Z" fill="#EDE6FF"/>
<path id="Path_3" opacity="0.4" d="M26.7188 110.824V114.893H25.7861C26.1546 113.539 26.4685 112.182 26.7188 110.824Z" fill="white"/>
<rect id="Rectangle" opacity="0.4" x="50.9219" y="114.893" width="10.814" height="6.17929" transform="rotate(-180 50.9219 114.893)" fill="white"/>
<path id="Path_4" opacity="0.4" d="M26.7189 120.815V126.992H20.8047C21.8875 124.984 22.8669 122.923 23.7391 120.815L26.7189 120.815Z" fill="white"/>
<rect id="Rectangle_2" opacity="0.4" x="50.9219" y="126.992" width="10.814" height="6.17929" transform="rotate(-180 50.9219 126.992)" fill="white"/>
<path id="Path_5" opacity="0.4" d="M17.3037 132.912H26.7188V139.091H15.9048V134.991L17.3037 132.912Z" fill="white"/>
<rect id="Rectangle_3" opacity="0.4" x="50.9219" y="139.091" width="10.814" height="6.17929" transform="rotate(-180 50.9219 139.091)" fill="white"/>
<rect id="Rectangle_4" opacity="0.4" x="15.9048" y="145.014" width="10.814" height="6.17929" fill="white"/>
<rect id="Rectangle_5" opacity="0.4" x="50.9219" y="151.191" width="10.814" height="6.17929" transform="rotate(-180 50.9219 151.191)" fill="white"/>
<rect id="Rectangle_6" opacity="0.4" x="15.9048" y="157.113" width="10.814" height="6.17929" fill="white"/>
<rect id="Rectangle_7" opacity="0.4" x="50.9219" y="163.29" width="10.814" height="6.17929" transform="rotate(-180 50.9219 163.29)" fill="white"/>
<rect id="Rectangle_8" opacity="0.4" x="15.9048" y="169.212" width="10.814" height="6.17929" fill="white"/>
<rect id="Rectangle_9" opacity="0.4" x="50.9219" y="175.389" width="10.814" height="6.17929" transform="rotate(-180 50.9219 175.389)" fill="white"/>
<rect id="Rectangle_10" opacity="0.4" x="15.9048" y="181.312" width="10.814" height="6.17929" fill="white"/>
<rect id="Rectangle_11" opacity="0.4" x="50.9219" y="187.489" width="10.814" height="6.17929" transform="rotate(-180 50.9219 187.489)" fill="white"/>
<rect id="Rectangle_12" opacity="0.4" x="59.9341" y="166.121" width="25.2334" height="3.08851" fill="white"/>
<rect id="Rectangle_13" opacity="0.4" x="59.9341" y="170.756" width="25.2334" height="3.08851" fill="white"/>
<rect id="Rectangle_14" opacity="0.4" x="59.9341" y="175.389" width="25.2334" height="3.08851" fill="white"/>
<rect id="Rectangle_15" opacity="0.4" x="125.849" y="167.668" width="25.2334" height="3.08851" fill="white"/>
<rect id="Rectangle_16" opacity="0.4" x="125.849" y="172.301" width="25.2334" height="3.08851" fill="white"/>
<rect id="Rectangle_17" opacity="0.4" x="125.849" y="176.933" width="25.2334" height="3.08851" fill="white"/>
<rect id="Rectangle_18" opacity="0.4" x="59.9341" y="180.024" width="25.2334" height="3.08851" fill="white"/>
<rect id="Rectangle_19" opacity="0.4" x="59.9341" y="184.657" width="25.2334" height="3.08851" fill="white"/>
<rect id="Rectangle_20" opacity="0.4" x="59.9341" y="189.292" width="25.2334" height="3.08851" fill="white"/>
<rect id="Rectangle_21" opacity="0.4" x="94.4351" y="134.202" width="6.95153" height="9.01079" fill="white"/>
<rect id="Rectangle_22" opacity="0.4" x="116.579" y="143.21" width="6.95153" height="9.01079" transform="rotate(-180 116.579 143.21)" fill="white"/>
<rect id="Rectangle_23" opacity="0.4" x="94.4351" y="148.616" width="6.95153" height="9.01079" fill="white"/>
<rect id="Rectangle_24" opacity="0.4" x="116.579" y="157.627" width="6.95153" height="9.01079" transform="rotate(-180 116.579 157.627)" fill="white"/>
<rect id="Rectangle_25" opacity="0.4" x="94.4351" y="163.033" width="6.95153" height="9.01079" fill="white"/>
<rect id="Rectangle_26" opacity="0.4" x="116.579" y="172.044" width="6.95153" height="9.01079" transform="rotate(-180 116.579 172.044)" fill="white"/>
<rect id="Rectangle_27" opacity="0.4" x="94.4351" y="177.45" width="6.95153" height="9.01079" fill="white"/>
<rect id="Rectangle_28" opacity="0.4" x="116.579" y="186.46" width="6.95153" height="9.01079" transform="rotate(-180 116.579 186.46)" fill="white"/>
<rect id="Rectangle_29" opacity="0.4" x="162.646" y="88.6899" width="9.26947" height="11.8423" fill="white"/>
<rect id="Rectangle_30" opacity="0.4" x="162.646" y="71.6589" width="9.26947" height="11.8423" fill="white"/>
<rect id="Rectangle_31" x="162.646" y="54.8262" width="9.26947" height="11.8423" fill="#EDE6FF"/>
<rect id="Rectangle_32" opacity="0.4" x="162.646" y="43.2839" width="9.26947" height="3.84746" fill="white"/>
<rect id="Rectangle_33" opacity="0.4" x="162.646" y="35.5889" width="9.26947" height="3.84746" fill="white"/>
<rect id="Rectangle_34" opacity="0.4" x="162.646" y="105.679" width="9.26947" height="11.8423" fill="white"/>
<rect id="Rectangle_35" opacity="0.4" x="162.646" y="122.67" width="9.26947" height="11.8423" fill="white"/>
<rect id="Rectangle_36" opacity="0.4" x="162.646" y="139.662" width="9.26947" height="11.8423" fill="white"/>
<rect id="Rectangle_37" opacity="0.4" x="162.646" y="156.651" width="9.26947" height="11.8423" fill="white"/>
<rect id="Rectangle_38" opacity="0.4" x="162.646" y="173.642" width="9.26947" height="11.8423" fill="white"/>
<rect id="Rectangle_39" opacity="0.4" x="184.168" y="110.003" width="34.5029" height="10.0388" fill="white"/>
<rect id="Rectangle_40" opacity="0.4" x="184.295" y="131.627" width="34.5029" height="10.0388" fill="white"/>
<rect id="Rectangle_41" opacity="0.4" x="184.425" y="153.251" width="34.5029" height="10.0388" fill="white"/>
<rect id="Rectangle_42" opacity="0.4" x="184.552" y="174.875" width="34.5029" height="10.0388" fill="white"/>
<path id="Path_6" opacity="0.4" d="M23.3727 89.15V89.3524C23.3341 89.2864 23.2931 89.2159 23.2522 89.15H23.3727Z" fill="white"/>
<path id="Path_7" opacity="0.4" d="M256.897 167.047V170.763H245.319V157.186C249.946 159.944 254.167 163.008 256.897 167.047Z" fill="white"/>
<path id="Path_8" opacity="0.4" d="M256.897 177.45V186.974C255.82 188.633 254.497 190.119 252.976 191.382C252.557 191.728 252.123 192.064 251.681 192.378H245.312V177.45H256.897Z" fill="white"/>
<path id="Path_9" opacity="0.1" d="M79.1646 76.4546H77.3926C78.0773 76.4546 78.6323 75.8996 78.6323 75.2151C78.6323 74.5305 78.0773 73.9756 77.3926 73.9756H63.0414C62.3567 73.9756 61.8017 74.5305 61.8017 75.2151C61.8017 75.8996 62.3567 76.4546 63.0414 76.4546H64.8134C64.1487 76.483 63.6245 77.0301 63.6245 77.6952C63.6245 78.3604 64.1487 78.9074 64.8134 78.9358H62.334C61.6493 78.9358 61.0942 79.4908 61.0942 80.1753C61.0942 80.8599 61.6493 81.4148 62.334 81.4148H76.6829C77.3675 81.4148 77.9226 80.8599 77.9226 80.1753C77.9226 79.4908 77.3675 78.9358 76.6829 78.9358H79.1646C79.8292 78.9074 80.3534 78.3604 80.3534 77.6952C80.3534 77.0301 79.8292 76.483 79.1646 76.4546Z" fill="#7C4DFF"/>
<path id="Path_10" opacity="0.1" d="M142.504 107.604H140.732C141.417 107.604 141.972 107.049 141.972 106.364C141.972 105.679 141.417 105.125 140.732 105.125H126.381C125.696 105.125 125.141 105.679 125.141 106.364C125.141 107.049 125.696 107.604 126.381 107.604H128.148C127.484 107.632 126.96 108.179 126.96 108.844C126.96 109.509 127.484 110.056 128.148 110.085H125.669C124.984 110.085 124.429 110.64 124.429 111.324C124.429 112.009 124.984 112.564 125.669 112.564H140.022C140.707 112.564 141.262 112.009 141.262 111.324C141.262 110.64 140.707 110.085 140.022 110.085H142.504C143.169 110.056 143.693 109.509 143.693 108.844C143.693 108.179 143.169 107.632 142.504 107.604Z" fill="#7C4DFF"/>
<path id="Path_11" opacity="0.1" d="M250.387 66.9299H248.615C249.3 66.9299 249.855 66.375 249.855 65.6904C249.855 65.0059 249.3 64.4509 248.615 64.4509H234.264C233.579 64.4509 233.024 65.0059 233.024 65.6904C233.024 66.375 233.579 66.9299 234.264 66.9299H236.036C235.351 66.9299 234.796 67.4849 234.796 68.1694C234.796 68.854 235.351 69.4089 236.036 69.4089H233.557C232.892 69.4374 232.368 69.9844 232.368 70.6495C232.368 71.3147 232.892 71.8617 233.557 71.8902H247.905C248.361 71.9097 248.791 71.6776 249.025 71.2857C249.259 70.8938 249.259 70.4053 249.025 70.0134C248.791 69.6215 248.361 69.3894 247.905 69.4089H250.387C251.072 69.4089 251.627 68.854 251.627 68.1694C251.627 67.4849 251.072 66.9299 250.387 66.9299Z" fill="#7C4DFF"/>
<ellipse id="Oval_2" opacity="0.25" cx="203.164" cy="215.69" rx="0.243395" ry="0.243351" fill="white"/>
<ellipse id="Oval_3" opacity="0.25" cx="205.439" cy="216.816" rx="0.243395" ry="0.243351" fill="white"/>
<ellipse id="Oval_4" opacity="0.25" cx="206.61" cy="217.341" rx="0.243395" ry="0.243351" fill="white"/>
<ellipse id="Oval_5" opacity="0.25" cx="209.037" cy="218.273" rx="0.243395" ry="0.243351" fill="white"/>
<ellipse id="Oval_6" opacity="0.25" cx="207.802" cy="217.875" rx="0.243395" ry="0.243351" fill="white"/>
<ellipse id="Oval_7" opacity="0.25" cx="181.229" cy="208.471" rx="0.243395" ry="0.243351" fill="white"/>
<ellipse id="Oval_8" opacity="0.25" cx="181.108" cy="210.398" rx="0.243395" ry="0.243351" fill="white"/>
<path id="Path_12" opacity="0.1" d="M189.93 198.087C190.913 198.191 191.904 198.191 192.887 198.087C194.634 197.921 193.308 198.981 189.93 198.087Z" fill="black"/>
<path id="Path_13" opacity="0.1" d="M189.136 199.213C189.136 199.213 191.454 200.536 192.348 199.874C193.242 199.213 191.486 200.514 189.136 199.213Z" fill="black"/>
<path id="Path_14" opacity="0.1" d="M201.786 194.907C201.786 194.907 203.605 196.335 204.354 196.331C205.102 196.326 201.786 194.907 201.786 194.907Z" fill="black"/>
<path id="Path_15" opacity="0.1" d="M201.753 169.549C201.753 169.549 199.934 171.17 199.301 171.104C198.669 171.038 201.753 169.549 201.753 169.549Z" fill="black"/>
<path id="Path_16" opacity="0.1" d="M202.238 171.104C202.238 171.104 200.318 171.996 199.736 172.128C199.154 172.26 201.497 170.875 202.238 171.104Z" fill="black"/>
<path id="Path_17" opacity="0.1" d="M209.667 146.733C209.667 146.733 212.515 146.765 212.945 147.659C213.375 148.552 210.596 146.369 209.667 146.733Z" fill="black"/>
<path id="Path_18" opacity="0.1" d="M209.27 148.289C209.27 148.289 211.456 148.743 212.117 149.282C212.779 149.821 209.27 148.289 209.27 148.289Z" fill="black"/>
<g id="Group" opacity="0.1">
<path id="Path_19" d="M195.157 124.745C195.217 124.815 195.262 124.896 195.289 124.984C195.39 124.677 195.341 124.34 195.157 124.074C195.039 123.938 194.866 123.858 194.759 123.715C194.759 123.703 194.745 123.69 194.736 123.676C194.614 123.896 194.623 124.165 194.759 124.377C194.866 124.518 195.039 124.599 195.157 124.745Z" fill="black"/>
<path id="Path_20" d="M198.526 116.155C198.526 115.903 198.537 115.652 198.526 115.404C198.478 114.495 198.312 113.585 198.273 112.675C198.221 113.781 198.467 114.95 198.526 116.066V116.155Z" fill="black"/>
</g>
<path id="Rectangle_43" d="M227.94 130.687C227.958 130.661 227.993 130.655 228.018 130.672C228.043 130.69 228.05 130.724 228.032 130.75L227.544 131.458C227.527 131.483 227.492 131.489 227.467 131.472C227.442 131.455 227.435 131.42 227.453 131.394L227.94 130.687Z" fill="#464353"/>
<g id="Group_2" opacity="0.1">
<path id="Path_21" d="M195.753 111.531C195.753 111.683 195.753 111.835 195.753 111.986C195.753 112.478 195.794 112.976 195.813 113.469C195.833 112.832 195.776 112.18 195.753 111.531Z" fill="black"/>
<path id="Path_22" d="M214.697 112.223C214.734 111.789 214.811 111.36 214.924 110.94C215.039 110.621 215.088 110.282 215.068 109.944C215.058 109.884 215.044 109.826 215.024 109.769C214.997 109.903 214.961 110.035 214.924 110.167C214.731 110.834 214.654 111.529 214.697 112.223Z" fill="black"/>
</g>
<path id="Path_23" d="M67.7594 166.572C67.5752 166.701 67.4751 166.776 67.4751 166.776C67.5795 166.723 67.6753 166.654 67.7594 166.572Z" fill="url(#paint0_linear_0:1275)"/>
<path id="Path_24" d="M67.9821 166.79L67.6978 166.997C67.8022 166.942 67.898 166.873 67.9821 166.79Z" fill="url(#paint1_linear_0:1275)"/>
<path id="Path_25" d="M67.9821 166.572C67.7978 166.701 67.6978 166.776 67.6978 166.776C67.8021 166.723 67.898 166.654 67.9821 166.572Z" fill="url(#paint2_linear_0:1275)"/>
<path id="Rectangle_44" opacity="0.05" d="M74.1348 103.604L77.1175 104.186L77.0966 104.293L74.1139 103.711L74.1348 103.604Z" fill="black"/>
<path id="Path_26" d="M154.224 197.575C154.224 197.575 155.639 199.424 153.571 202.217C151.503 205.01 149.799 207.366 150.489 209.106C150.489 209.106 153.607 203.92 156.146 203.847C158.684 203.775 157.017 200.693 154.224 197.575Z" fill="#7C4DFF"/>
<path id="Path_27" opacity="0.1" d="M154.223 197.575C154.347 197.753 154.444 197.949 154.512 198.155C156.989 201.064 158.311 203.779 155.929 203.841C153.711 203.904 151.05 207.871 150.413 208.871C150.434 208.949 150.459 209.025 150.488 209.099C150.488 209.099 153.607 203.913 156.145 203.841C158.684 203.768 157.017 200.693 154.223 197.575Z" fill="black"/>
<path id="Path_28" d="M156.853 199.931C156.853 200.584 156.78 201.112 156.692 201.112C156.603 201.112 156.528 200.584 156.528 199.931C156.528 199.279 156.619 199.588 156.71 199.588C156.801 199.588 156.853 199.281 156.853 199.931Z" fill="#FFC430"/>
<path id="Path_29" d="M157.756 200.707C157.185 201.018 156.687 201.207 156.644 201.127C156.6 201.048 157.028 200.732 157.599 200.42C158.17 200.109 157.947 200.336 157.99 200.42C158.033 200.504 158.327 200.397 157.756 200.707Z" fill="#FFC430"/>
<path id="Path_30" d="M146.753 197.575C146.753 197.575 145.338 199.424 147.406 202.217C149.474 205.01 151.178 207.366 150.488 209.106C150.488 209.106 147.37 203.92 144.831 203.847C142.293 203.775 143.96 200.693 146.753 197.575Z" fill="#7C4DFF"/>
<path id="Path_31" opacity="0.1" d="M146.753 197.575C146.63 197.753 146.533 197.949 146.464 198.155C143.987 201.064 142.668 203.779 145.05 203.841C147.267 203.904 149.927 207.871 150.563 208.871C150.543 208.949 150.518 209.025 150.488 209.099C150.488 209.099 147.37 203.913 144.831 203.841C142.293 203.768 143.96 200.693 146.753 197.575Z" fill="black"/>
<path id="Path_32" d="M144.124 199.931C144.124 200.584 144.196 201.112 144.287 201.112C144.378 201.112 144.451 200.584 144.451 199.931C144.451 199.279 144.358 199.588 144.269 199.588C144.18 199.588 144.124 199.281 144.124 199.931Z" fill="#FFC430"/>
<path id="Path_33" d="M143.22 200.707C143.794 201.018 144.292 201.207 144.335 201.127C144.378 201.048 143.948 200.732 143.377 200.42C142.806 200.109 143.032 200.336 142.988 200.42C142.945 200.504 142.65 200.397 143.22 200.707Z" fill="#FFC430"/>
<path id="Path_34" d="M144.574 208.865C144.574 208.865 148.53 208.742 149.722 207.893C150.914 207.045 155.804 206.033 156.091 207.393C156.378 208.753 162.033 214.161 157.57 214.198C153.107 214.234 147.195 213.502 146.005 212.776C144.815 212.051 144.574 208.865 144.574 208.865Z" fill="#A8A8A8"/>
<path id="Path_35" opacity="0.2" d="M157.658 213.723C153.193 213.759 147.283 213.029 146.094 212.303C145.184 211.753 144.827 209.772 144.706 208.86H144.574C144.574 208.86 144.824 212.044 146.014 212.772C147.204 213.5 153.114 214.23 157.579 214.193C158.866 214.182 159.312 213.725 159.287 213.045C159.11 213.459 158.616 213.716 157.658 213.723Z" fill="black"/>
<path id="Path_36" d="M136.949 211.767C137.277 211.496 137.515 211.133 137.632 210.725C137.721 210.313 137.543 209.815 137.15 209.667C136.695 209.497 136.24 209.804 135.876 210.122C135.512 210.441 135.105 210.786 134.636 210.72C135.127 210.276 135.348 209.605 135.218 208.956C135.198 208.823 135.142 208.699 135.057 208.596C134.811 208.335 134.374 208.448 134.072 208.655C133.137 209.313 132.875 210.582 132.871 211.726C132.775 211.314 132.855 210.884 132.853 210.461C132.85 210.038 132.734 209.57 132.377 209.342C132.156 209.222 131.906 209.163 131.654 209.172C131.233 209.156 130.765 209.197 130.478 209.506C130.121 209.888 130.214 210.529 130.523 210.948C130.833 211.366 131.306 211.63 131.74 211.924C132.09 212.13 132.387 212.414 132.609 212.754C132.637 212.8 132.659 212.85 132.675 212.901H135.312C135.907 212.6 136.458 212.218 136.949 211.767Z" fill="#7C4DFF"/>
<path id="Path_37" d="M119.079 210.291C119.079 210.291 116.55 201.71 119.552 195.394C120.826 192.752 121.209 189.768 120.642 186.89C120.362 185.526 119.96 184.19 119.439 182.899" stroke="#535461" stroke-width="1.38667"/>
<path id="Path_38" d="M121.324 178.908C121.324 179.958 119.418 183.001 119.418 183.001C119.418 183.001 117.514 179.952 117.514 178.908C117.55 177.881 118.392 177.068 119.419 177.068C120.446 177.068 121.289 177.881 121.324 178.908Z" fill="#7C4DFF"/>
<path id="Path_39" d="M124.461 184.732C123.888 185.617 120.633 187.141 120.633 187.141C120.633 187.141 120.692 183.545 121.263 182.662C121.835 181.779 123.014 181.527 123.897 182.098C124.78 182.67 125.033 183.849 124.461 184.732Z" fill="#7C4DFF"/>
<path id="Path_40" d="M124.322 194.687C123.383 195.162 119.802 194.834 119.802 194.834C119.802 194.834 121.668 191.76 122.607 191.287C123.214 190.98 123.939 191.021 124.508 191.394C125.077 191.767 125.404 192.415 125.366 193.094C125.327 193.773 124.93 194.38 124.322 194.687Z" fill="#7C4DFF"/>
<path id="Path_41" d="M122.523 202.196C121.677 202.822 118.092 203.106 118.092 203.106C118.092 203.106 119.411 199.761 120.257 199.135C121.103 198.507 122.299 198.684 122.927 199.53C123.555 200.376 123.378 201.571 122.532 202.199L122.523 202.196Z" fill="#7C4DFF"/>
<path id="Path_42" d="M116.634 187.345C117.387 188.077 120.903 188.837 120.903 188.837C120.903 188.837 120.041 185.346 119.288 184.614C118.803 184.13 118.094 183.945 117.434 184.129C116.773 184.313 116.263 184.838 116.097 185.503C115.932 186.168 116.137 186.871 116.634 187.343V187.345Z" fill="#7C4DFF"/>
<path id="Path_43" d="M114.639 196.158C115.578 196.633 119.159 196.306 119.159 196.306C119.159 196.306 117.293 193.231 116.354 192.758C115.744 192.452 115.018 192.494 114.448 192.868C113.878 193.243 113.551 193.893 113.59 194.574C113.63 195.255 114.029 195.863 114.639 196.17V196.158Z" fill="#7C4DFF"/>
<path id="Path_44" d="M113.875 204.978C114.721 205.603 118.306 205.888 118.306 205.888C118.306 205.888 116.986 202.542 116.14 201.917C115.593 201.51 114.871 201.427 114.246 201.697C113.62 201.968 113.187 202.551 113.108 203.228C113.03 203.905 113.319 204.572 113.866 204.978H113.875Z" fill="#7C4DFF"/>
<path id="Path_45" d="M121.324 178.908C121.324 179.958 119.418 183.001 119.418 183.001C119.418 183.001 117.514 179.952 117.514 178.908C117.55 177.881 118.392 177.068 119.419 177.068C120.446 177.068 121.289 177.881 121.324 178.908Z" fill="#7C4DFF"/>
<path id="Path_46" d="M124.461 184.732C123.888 185.617 120.633 187.141 120.633 187.141C120.633 187.141 120.692 183.545 121.263 182.662C121.835 181.779 123.014 181.527 123.897 182.098C124.78 182.67 125.033 183.849 124.461 184.732Z" fill="#7C4DFF"/>
<path id="Path_47" d="M124.322 194.687C123.383 195.162 119.802 194.834 119.802 194.834C119.802 194.834 121.668 191.76 122.607 191.287C123.214 190.98 123.939 191.021 124.508 191.394C125.077 191.767 125.404 192.415 125.366 193.094C125.327 193.773 124.93 194.38 124.322 194.687Z" fill="#7C4DFF"/>
<path id="Path_48" d="M122.523 202.196C121.677 202.822 118.092 203.106 118.092 203.106C118.092 203.106 119.411 199.761 120.257 199.135C121.103 198.507 122.299 198.684 122.927 199.53C123.555 200.376 123.378 201.571 122.532 202.199L122.523 202.196Z" fill="#7C4DFF"/>
<path id="Path_49" d="M116.634 187.345C117.387 188.077 120.903 188.837 120.903 188.837C120.903 188.837 120.041 185.346 119.288 184.614C118.803 184.13 118.094 183.945 117.434 184.129C116.773 184.313 116.263 184.838 116.097 185.503C115.932 186.168 116.137 186.871 116.634 187.343V187.345Z" fill="#7C4DFF"/>
<path id="Path_50" d="M114.639 196.158C115.578 196.633 119.159 196.306 119.159 196.306C119.159 196.306 117.293 193.231 116.354 192.758C115.744 192.452 115.018 192.494 114.448 192.868C113.878 193.243 113.551 193.893 113.59 194.574C113.63 195.255 114.029 195.863 114.639 196.17V196.158Z" fill="#7C4DFF"/>
<path id="Path_51" d="M113.875 204.978C114.721 205.603 118.306 205.888 118.306 205.888C118.306 205.888 116.986 202.542 116.14 201.917C115.593 201.51 114.871 201.427 114.246 201.697C113.62 201.968 113.187 202.551 113.108 203.228C113.03 203.905 113.319 204.572 113.866 204.978H113.875Z" fill="#7C4DFF"/>
<path id="Path_52" d="M113.104 209.749C113.104 209.749 116.181 209.138 117.002 208.323C117.824 207.509 121.518 206.083 121.927 207.1C122.337 208.116 127.468 211.582 123.974 212.194C120.48 212.806 115.767 213.008 114.741 212.601C113.715 212.194 113.104 209.749 113.104 209.749Z" fill="#A8A8A8"/>
<path id="Path_53" opacity="0.2" d="M123.981 211.814C120.492 212.426 115.772 212.629 114.746 212.221C113.963 211.912 113.422 210.42 113.206 209.72L113.104 209.742C113.104 209.742 113.72 212.187 114.746 212.594C115.772 213.002 120.492 212.797 123.981 212.187C124.987 212.01 125.276 211.596 125.166 211.071C125.08 211.421 124.736 211.682 123.981 211.814Z" fill="black"/>
</g>
<defs>
<linearGradient id="paint0_linear_0:1275" x1="67.4751" y1="166.788" x2="67.7594" y2="166.788" gradientUnits="userSpaceOnUse">
<stop stop-color="#808080" stop-opacity="0.25"/>
<stop offset="0.54" stop-color="#808080" stop-opacity="0.12"/>
<stop offset="1" stop-color="#808080" stop-opacity="0.1"/>
</linearGradient>
<linearGradient id="paint1_linear_0:1275" x1="67.6978" y1="167.008" x2="67.9821" y2="167.008" gradientUnits="userSpaceOnUse">
<stop stop-color="#808080" stop-opacity="0.25"/>
<stop offset="0.54" stop-color="#808080" stop-opacity="0.12"/>
<stop offset="1" stop-color="#808080" stop-opacity="0.1"/>
</linearGradient>
<linearGradient id="paint2_linear_0:1275" x1="67.6978" y1="166.788" x2="67.9821" y2="166.788" gradientUnits="userSpaceOnUse">
<stop stop-color="#808080" stop-opacity="0.25"/>
<stop offset="0.54" stop-color="#808080" stop-opacity="0.12"/>
<stop offset="1" stop-color="#808080" stop-opacity="0.1"/>
</linearGradient>
</defs>
</svg>
